<svg viewBox="0 0 512 512" xmlns="http://www.w3.org/2000/svg" fill-rule="evenodd" clip-rule="evenodd" stroke-linejoin="round" stroke-miterlimit="1.414"><path d="M152.154 402.153c-27.503 0-50 22.498-50 50 0 27.504 22.497 50 50 50 27.502 0 50-22.496 50-50 0-27.503-22.5-50-50-50zM6 9.846v50h50l90.004 182.31-37.63 61.242c-3.748 6.25-6.25 15.003-6.25 23.756 0 33.474 22.866 50 53.876 50h292.308v-48.076H162.12c-3.746 0-6.25-2.503-6.25-6.25 0-1.246 2.654-6.25 2.654-6.25l24.978-39.424h186.243c18.75 0 35.01-9.996 43.75-26.245L503.498 96.1c1.486-2.958 2.502-7.508 2.502-12.5 0-13.756-11.255-23.755-25-23.755H111.005l-23.755-50H6zm392.306 392.307c-27.502 0-50 22.498-50 50 0 27.504 22.498 50 50 50 27.503 0 50.002-22.497 50.002-50s-22.5-50-50.002-50z" fill="#010101" fill-rule="nonzero"/></svg>