<svg viewBox="0 0 512 512" xmlns="http://www.w3.org/2000/svg" fill-rule="evenodd" clip-rule="evenodd" stroke-linejoin="round" stroke-miterlimit="1.414"><path d="M256 1C114.474 1 1 114.474 1 256c0 141.52 113.474 255 255 255 141.52 0 255-113.48 255-255C511 114.474 397.52 1 256 1zm162.89 148.904L221.866 403.008c-1.517 1.517-4.124 4.883-7.253 4.883-3.224 0-5.452-2.275-7.253-4.124-1.848-1.8-112.02-107.613-112.02-107.613l-2.23-2.038c-.947-1.327-1.563-2.75-1.563-4.504 0-1.658.616-3.175 1.564-4.502.57-.57.95-.948 1.565-1.66 10.904-11.567 33.043-34.796 34.418-36.218 1.8-1.802 3.413-4.267 6.874-4.267 3.46 0 5.783 2.94 7.49 4.646 1.754 1.753 63.81 61.438 63.81 61.438L365.224 106.1c1.327-1.185 3.08-1.99 4.977-1.99 1.897 0 3.556.805 4.883 1.896l43.425 34.227c1.09 1.422 1.896 3.082 1.896 5.073.047 1.754-.57 3.223-1.517 4.598z"/></svg>