<?xml version="1.0" encoding="UTF-8" standalone="no"?><!DOCTYPE svg PUBLIC "-//W3C//DTD SVG 1.1//EN" "http://www.w3.org/Graphics/SVG/1.1/DTD/svg11.dtd"><svg width="100%" height="100%" viewBox="0 0 512 512" version="1.1" xmlns="http://www.w3.org/2000/svg" xmlns:xlink="http://www.w3.org/1999/xlink" xml:space="preserve" style="fill-rule:evenodd;clip-rule:evenodd;stroke-linejoin:round;stroke-miterlimit:1.41421;"><path d="M152.154,402.153c-27.503,0 -50,22.498 -50,50.001c0,27.503 22.497,50 50,50c27.502,0 50.001,-22.497 50.001,-50c-0.001,-27.504 -22.5,-50.001 -50.001,-50.001Zm-146.154,-392.307l0,50l50,0l90.004,182.31l-37.63,61.242c-3.748,6.25 -6.25,15.003 -6.25,23.756c0,33.474 22.866,50 53.876,50l292.308,0l0,-48.076l-286.187,0c-3.747,0 -6.25,-2.503 -6.25,-6.25c0,-1.246 2.653,-6.25 2.653,-6.25l24.978,-39.424l186.243,0c18.751,0 35.01,-9.996 43.75,-26.245l90.003,-154.807c1.486,-2.958 2.502,-7.508 2.502,-12.499c0,-13.757 -11.255,-23.756 -25,-23.756l-369.995,0l-23.755,-50.001l-81.25,0Zm392.306,392.307c-27.502,0 -50,22.498 -50,50.001c0,27.503 22.498,50 50,50c27.503,0 50.002,-22.498 50.002,-50.001c0,-27.503 -22.499,-50 -50.002,-50Z" style="fill:#010101;fill-rule:nonzero;"/></svg>