<?xml version="1.0" encoding="UTF-8" standalone="no"?><!DOCTYPE svg PUBLIC "-//W3C//DTD SVG 1.1//EN" "http://www.w3.org/Graphics/SVG/1.1/DTD/svg11.dtd"><svg width="100%" height="100%" viewBox="0 0 512 512" version="1.1" xmlns="http://www.w3.org/2000/svg" xmlns:xlink="http://www.w3.org/1999/xlink" xml:space="preserve" style="fill-rule:evenodd;clip-rule:evenodd;stroke-linejoin:round;stroke-miterlimit:1.41421;"><path d="M256,1c-141.526,0 -255,113.474 -255,255c0,141.52 113.474,255 255,255c141.519,0 255,-113.48 255,-255c0,-141.526 -113.48,-255 -255,-255Zm162.889,148.904l-197.022,253.104c-1.517,1.517 -4.124,4.883 -7.253,4.883c-3.224,0 -5.452,-2.276 -7.253,-4.125c-1.849,-1.801 -112.022,-107.613 -112.022,-107.613l-2.228,-2.038c-0.948,-1.327 -1.564,-2.75 -1.564,-4.504c0,-1.659 0.616,-3.176 1.564,-4.503c0.569,-0.569 0.948,-0.948 1.564,-1.66c10.904,-11.567 33.043,-34.796 34.418,-36.218c1.801,-1.802 3.413,-4.267 6.874,-4.267c3.46,0 5.783,2.939 7.49,4.646c1.754,1.754 63.809,61.439 63.809,61.439l157.959,-202.948c1.327,-1.185 3.081,-1.991 4.977,-1.991c1.897,0 3.556,0.806 4.883,1.897l43.425,34.227c1.09,1.422 1.896,3.082 1.896,5.073c0.047,1.754 -0.569,3.223 -1.517,4.598Z"/></svg>